<svg id="bd2334f3-2fb9-4347-bb34-68d085cba2b1" data-name="レイヤー 2" xmlns="http://www.w3.org/2000/svg" viewBox="0 0 470.02 44.41"><defs><style>.f6a33ca7-451b-42bb-beda-77745d9ea7de{fill:#004ea2;}.a035161b-7dd5-4339-b51d-4cfc9bbd09cd{fill:#fff;}</style></defs><path class="f6a33ca7-451b-42bb-beda-77745d9ea7de" d="M29.49,44.26a4,4,0,0,1-3-1.37,4,4,0,0,1-3,1.37H17.58a3.85,3.85,0,0,1-1.52-.3,3.84,3.84,0,0,1-1.51.3H8.88a4,4,0,0,1-4-4V27.51a3.57,3.57,0,0,1-.55-.41l-3-2.59a4,4,0,0,1-1-4.63,30.58,30.58,0,0,0,.88-7.67,4,4,0,0,1,1.26-2.9,3.93,3.93,0,0,1,2.4-1.08V5a4,4,0,0,1,4-4h5.67a4,4,0,0,1,3.27,1.7h4A4,4,0,0,1,25.09,1h6a4,4,0,0,1,3.27,1.7h5.13a4,4,0,0,1,4,4v4.11a4,4,0,0,1-.74,2.31v.27a4,4,0,0,1,1.4,3V20.8a4,4,0,0,1-1.48,3.11V36.49c0,5.73-4,7.77-7.73,7.77Z"/><path class="a035161b-7dd5-4339-b51d-4cfc9bbd09cd" d="M4,21.5c.89-2,1.22-7,1.22-9.29l3.18.19A41.68,41.68,0,0,1,7,24.09Zm11.73-5.66c-.3-.74-.48-1.26-1.18-2.74V40.26H8.88V5h5.67V9.85L15.88,9c.29.45.52.74.89,1.37V6.74h8.32V5h6v1.7h8.4v4.11h-8.4V12h7.66v3.25H31.05v1.26h9.06V20.8H16V16.47h9.06V15.21H17.73v-.55Zm2-3.88h7.36V10.85H17a8.47,8.47,0,0,1,.7,1.33Zm20.9,9.91V36.49c0,1,0,3.77-3.73,3.77H29.49l-.92-4.51h3.11c.85,0,.92-.15.92-.82v-.66H23.46v6H17.58V21.87Zm-15.17,4V27.2H32.6V25.91Zm0,4.1v1.22H32.6V30Z"/><path class="f6a33ca7-451b-42bb-beda-77745d9ea7de" d="M69.68,44.41a3.39,3.39,0,0,1-.55,0A4.23,4.23,0,0,1,67.92,44a4.67,4.67,0,0,1-.76.07H61.5a4,4,0,0,1-3.11-1.48,4,4,0,0,1-3.11,1.48H49.36a4,4,0,0,1-4-4V39h-.73a4,4,0,0,1-4-4V29.79a4,4,0,0,1-.78-2.37V22.09a4,4,0,0,1,.23-1.34,4,4,0,0,1-.3-1.54V14.14a4,4,0,0,1,.85-2.47V7a4,4,0,0,1,4-4H46a4,4,0,0,1,3.37-1.85h5.92A4,4,0,0,1,58.66,3h.2A4,4,0,0,1,61.5,2H78.34a4,4,0,0,1,4,3.94,70.66,70.66,0,0,1-.89,11,4,4,0,0,1,1,2.9A53.3,53.3,0,0,1,80.81,31l.68.38a4,4,0,0,1,1.56,5.44l-3,5.33a4,4,0,0,1-3.5,2.06,3.91,3.91,0,0,1-1.89-.48c-.5-.27-1-.57-1.62-1-.28.26-.57.5-.86.73A4,4,0,0,1,69.68,44.41Z"/><path class="a035161b-7dd5-4339-b51d-4cfc9bbd09cd" d="M67.16,19.65H78.45c-.34,5.18-.93,9.47-2.45,12.92a24.08,24.08,0,0,0,3.56,2.29l-3,5.33a16.29,16.29,0,0,1-3.81-2.74,29,29,0,0,1-3.11,3l-2.52-3.63v3.3H61.5V27.42H55.28v2.11h5.11V35H55.28v5.11H49.36V35H44.63V29.53h4.73V27.42H43.85V22.09h2.33a21.82,21.82,0,0,0-.55-2.88H43.78V14.14h5.58V12.25H44.63V7h4.73V5.18h5.92V7h4.81v5.22H55.28v1.89H61.5V6H78.34c0,2.66-.41,9-.82,10.17a3.42,3.42,0,0,1-3.25,2.3h-5l-1-4.78h2.78c1,0,1.11-.26,1.14-2.07h-5Zm-16.5-.44c.11.48.52,2.48.59,2.88h2.63c.22-1.29.26-1.66.4-2.88Zm10.84,0H59.69c-.11.48-.52,2.48-.63,2.88H61.5Zm5.66,6.88,3.59-.59a14.61,14.61,0,0,0,1.41,3,22.72,22.72,0,0,0,1-3.74h-6Zm0,9.21a20.57,20.57,0,0,0,2.22-2.14,20.31,20.31,0,0,1-2.22-5.74Z"/><path class="f6a33ca7-451b-42bb-beda-77745d9ea7de" d="M101.16,41.6c-8.07,0-11.36-3.26-11.36-11.25V28.8h-5a4,4,0,0,1-4-4V18.73a4,4,0,0,1,1.58-3.19,4.2,4.2,0,0,1-.21-1.29v-6a4,4,0,0,1,4-4H114a4,4,0,0,1,4,4v6a4.07,4.07,0,0,1-.17,1.16,4,4,0,0,1,1.76,3.32V24.8a4,4,0,0,1-2.42,3.67l.22.2a4,4,0,0,1,1.19,3.06l-.29,6.06a4,4,0,0,1-4,3.81Z"/><path class="a035161b-7dd5-4339-b51d-4cfc9bbd09cd" d="M100.61,14.25v4.48h15V24.8h-15v5.8c0,1.23.22,1.23,1.77,1.23h5.85c2.44,0,4.22-.15,6.33-.3l-.3,6.07h-13.1c-5.58,0-7.36-1.3-7.36-7.25V24.8h-9V18.73h9V14.25H86.14v-6H114v6Z"/><path class="f6a33ca7-451b-42bb-beda-77745d9ea7de" d="M129.35,42.49a4,4,0,0,1-3.79-2.75l-2-6.07a4,4,0,0,1,3.62-5.25c5.06-.23,8.41-.86,10.65-1.84h-14a4,4,0,0,1-4-4v-6a4,4,0,0,1,2.74-3.8v-5a4,4,0,0,1,4-4h24.87a4,4,0,0,1,4,4V13a4.09,4.09,0,0,1,1.27.92,4,4,0,0,1,1,3.05c-.53,6.36-2.61,15-9.42,19.86-5.81,4.18-14.2,5.36-18.69,5.7Z"/><path class="a035161b-7dd5-4339-b51d-4cfc9bbd09cd" d="M153.78,16.58c-.45,5.26-2.15,12.92-7.77,17-4.63,3.33-11.66,4.59-16.65,5l-2-6.07c10.69-.48,16.87-2.74,18.65-9.84H123.84v-6Zm-2.33-8.84v5.95H126.58V7.74Z"/><path class="f6a33ca7-451b-42bb-beda-77745d9ea7de" d="M165.51,42.89a4,4,0,0,1-2.86-1.2l-4.93-5a4,4,0,0,1-.1-5.48c3.25-3.6,3.85-7.62,3.85-14.23V8.26a4,4,0,0,1,4-4H172a3.67,3.67,0,0,1,.94.11,4,4,0,0,1,2.69-1h6.47a4,4,0,0,1,4,4v8.29a3.81,3.81,0,0,1,1-.73,4,4,0,0,1,3.51-.17l6.18,2.67A4,4,0,0,1,199,22C195.94,35,188.09,41.8,175.71,42.12h-.1a4,4,0,0,1-2.8-1.14,4,4,0,0,1-1.2-2.86v-.47a20.56,20.56,0,0,1-3.34,4.13A4,4,0,0,1,165.51,42.89Z"/><path class="a035161b-7dd5-4339-b51d-4cfc9bbd09cd" d="M172,16.36c0,11.4-1.92,18.17-6.47,22.53l-4.93-5c4.19-4.62,4.89-9.73,4.89-16.91V8.26H172ZM182.08,30C184,29,187.6,26.9,189,18.39l6.17,2.67c-1.36,5.77-4.92,16.69-19.53,17.06V7.33h6.47Z"/><path class="f6a33ca7-451b-42bb-beda-77745d9ea7de" d="M247.13,42.41a4,4,0,0,1-4-4V6.81a4,4,0,0,1,4-4h7a4,4,0,0,1,4,4v5.45a83,83,0,0,1,14.94,6.85,4,4,0,0,1,1.56,5.29l-3.47,6.77a4,4,0,0,1-5.84,1.46,68.44,68.44,0,0,0-7.19-4.45V38.41a4,4,0,0,1-4,4Z"/><path class="a035161b-7dd5-4339-b51d-4cfc9bbd09cd" d="M267.63,29.35A65,65,0,0,0,254.16,22V38.41h-7V6.81h7v8.33a81.67,81.67,0,0,1,17,7.44Z"/><path class="f6a33ca7-451b-42bb-beda-77745d9ea7de" d="M284.76,42.49a4,4,0,0,1-3.8-2.75l-2-6.07a4,4,0,0,1,3.62-5.25c5.06-.23,8.41-.86,10.65-1.84h-14a4,4,0,0,1-4-4v-6a4,4,0,0,1,2.74-3.8v-5a4,4,0,0,1,4-4h24.87a4,4,0,0,1,4,4V13a4.13,4.13,0,0,1,1.28.92,4.06,4.06,0,0,1,1,3.05c-.54,6.36-2.61,15-9.43,19.86-5.81,4.18-14.2,5.36-18.69,5.7Z"/><path class="a035161b-7dd5-4339-b51d-4cfc9bbd09cd" d="M309.18,16.58c-.44,5.26-2.15,12.92-7.77,17-4.63,3.33-11.66,4.59-16.65,5l-2-6.07c10.69-.48,16.87-2.74,18.65-9.84H279.24v-6Zm-2.33-8.84v5.95H282V7.74Z"/><path class="f6a33ca7-451b-42bb-beda-77745d9ea7de" d="M323.31,42.52a4,4,0,0,1-3.61-2.27l-2.92-6.1a4,4,0,0,1,2.85-5.66c9.69-1.86,13-5.41,14.41-9.2H318.21a4,4,0,0,1-4-4V8.88a4,4,0,0,1,4-4H336.6a4,4,0,0,1,1.28-1.44l2.48-1.7a4,4,0,0,1,2.27-.7,4,4,0,0,1,1.75.4L345.5.68a4,4,0,0,1,5.32.78A34.39,34.39,0,0,1,355.49,9a4,4,0,0,1-1.36,5.11l-2.66,1.78a4,4,0,0,1-1.67.63,4,4,0,0,1-.07,1c-1,5-4,20.39-25.59,24.94A4,4,0,0,1,323.31,42.52Z"/><path class="a035161b-7dd5-4339-b51d-4cfc9bbd09cd" d="M339.19,8.88l6.62,7.85c-.93,4.7-3.52,17.8-22.5,21.79l-2.92-6.1c15.21-2.92,17.54-10.21,18.68-17.13H318.21V8.88ZM342.63,5A32.14,32.14,0,0,1,347,11.66l-2.63,1.85a31.13,31.13,0,0,0-4.18-6.77Zm5.1-1a31.29,31.29,0,0,1,4.18,6.73l-2.66,1.78a31.62,31.62,0,0,0-4-6.84Z"/><path class="f6a33ca7-451b-42bb-beda-77745d9ea7de" d="M359.76,42.89a4,4,0,0,1-2.86-1.2l-4.92-5a4,4,0,0,1-.11-5.48c3.25-3.6,3.85-7.62,3.85-14.23V8.26a4,4,0,0,1,4-4h6.51a3.61,3.61,0,0,1,.94.11,4,4,0,0,1,2.69-1h6.47a4,4,0,0,1,4,4v8.29a3.81,3.81,0,0,1,1-.73,4,4,0,0,1,3.51-.17L391,17.39A4,4,0,0,1,393.29,22C390.19,35,382.34,41.8,370,42.12h-.1a4,4,0,0,1-4-4v-.47a20.8,20.8,0,0,1-3.33,4.13A4,4,0,0,1,359.76,42.89Z"/><path class="a035161b-7dd5-4339-b51d-4cfc9bbd09cd" d="M366.23,16.36c0,11.4-1.92,18.17-6.47,22.53l-4.92-5c4.18-4.62,4.88-9.73,4.88-16.91V8.26h6.51ZM376.33,30c1.93-1,5.52-3.08,6.89-11.59l6.18,2.67c-1.37,5.77-4.93,16.69-19.54,17.06V7.33h6.47Z"/><path class="f6a33ca7-451b-42bb-beda-77745d9ea7de" d="M402.49,44.3a4,4,0,0,1-3.9-3.1l-.71-3.08h-2.6a4,4,0,0,1-4-4V32.65a4,4,0,0,1-2-3.49V25.09a4,4,0,0,1,2.11-3.52V20.5a4,4,0,0,1,1.22-2.87V14.69a4,4,0,0,1-2.89-3.84V6.66a4,4,0,0,1,4-4h11A4,4,0,0,1,408,.93h5.92a4,4,0,0,1,3.3,1.73h11.09a4,4,0,0,1,4,4v4.19a4,4,0,0,1-2.85,3.83v3.4a4,4,0,0,1,.81,2.42v.55a4,4,0,0,1,2.26,3.6v4.66a4,4,0,0,1-2.26,3.6v1.21a4,4,0,0,1-4,4h-8.43A6.66,6.66,0,0,1,411,44.3Z"/><path class="a035161b-7dd5-4339-b51d-4cfc9bbd09cd" d="M428.32,10.85H413.93v1.22h11.54v7.36H413.93V20.5h12.35v4.15h2.26v4.66h-2.26v4.81H413.93v2.74c0,1.7-.67,3.44-3,3.44h-8.48l-1.07-4.63h5.66c.93,0,.93-.33.93-1.55H395.28V30.38H408V29.16H393.24V25.09H408V23.91H395.35V20.5H408V19.43H396.57V12.07H408V10.85H393.68V6.66H408V4.93h5.92V6.66h14.39ZM408,15.06h-5.63v1.41H408Zm11.65,0h-5.73v1.41h5.73Zm.59,8.85h-6.32v1.4h6.32Zm0,5.1h-6.32v1.37h6.32Z"/><path class="f6a33ca7-451b-42bb-beda-77745d9ea7de" d="M442.64,44.37a4,4,0,0,1-1.7-.38,3.89,3.89,0,0,1-1.45.27H433.9a4,4,0,0,1-4-4v-11a4,4,0,0,1-1.31-2.55l-1-9.47a4,4,0,0,1,.69-2.72c1.63-2.35,2.85-4.93,3.46-9.9a4,4,0,0,1,4-3.51h.22l5.33.3a4,4,0,0,1,2,.69h10.36a4,4,0,0,1,2.76,1.11h.52a4,4,0,0,1,3.52-2.11H466a4,4,0,0,1,4,4V36.41c0,4.7-3,7.85-7.48,7.85h-5.69A4,4,0,0,1,452.91,41l-.84-4.71a24,24,0,0,1-7.27,7.48A4,4,0,0,1,442.64,44.37Z"/><path class="a035161b-7dd5-4339-b51d-4cfc9bbd09cd" d="M453.44,14.36c.15,13.51-4.7,22.09-10.8,26L439.49,36v4.22H433.9V24.65c-.63.77-.88,1.07-1.33,1.59l-1-9.47c2.1-3,3.47-6.29,4.14-11.7l5.33.3a58,58,0,0,1-1.52,7.44V21.1A20.43,20.43,0,0,0,443,11.7h-1.66V6.07h12.25V11.7h-5.7c-.08.88-.15,1.48-.34,2.66ZM439.49,35a19.08,19.08,0,0,0,5.81-6.07,31.37,31.37,0,0,0-2.52-2.81,11.31,11.31,0,0,1-1.44,1.7l-1.85-2.92Zm6.7-15.28a18.77,18.77,0,0,1-.85,2.07c.37.3,1.48,1.11,2.29,1.81a25.5,25.5,0,0,0,.82-3.88ZM454.4,7.18h4.81V31.64H454.4Zm6-2.11H466V36.41c0,1.78-.7,3.85-3.48,3.85h-5.69l-1.11-6.21h3.84c.85,0,.85-.48.85-1.26Z"/></svg>